<svg width="21" height="21" viewBox="0 0 21 21" fill="none" xmlns="http://www.w3.org/2000/svg">
<path fill-rule="evenodd" clip-rule="evenodd" d="M11.5 8C11.5 6.35 10.15 5 8.49999 5C6.84999 5 5.49999 6.35 5.49999 8C5.49999 9.65 6.84999 11 8.49999 11C10.15 11 11.5 9.65 11.5 8ZM8.49999 9C7.94999 9 7.49999 8.55 7.49999 8C7.49999 7.45 7.94999 7 8.49999 7C9.04999 7 9.49999 7.45 9.49999 8C9.49999 8.55 9.04999 9 8.49999 9ZM15 11C16.11 11 17 10.11 17 9C17 7.89 16.11 7 15 7C13.89 7 12.99 7.89 13 9C13 10.11 13.89 11 15 11ZM10.99 0.00999832C5.46999 0.00999832 0.98999 4.49 0.98999 10.01C0.98999 15.53 5.46999 20.01 10.99 20.01C16.51 20.01 20.99 15.53 20.99 10.01C20.99 4.49 16.51 0.00999832 10.99 0.00999832ZM4.83999 15.12C5.51999 14.58 7.10999 14.01 8.49999 14.01C8.56999 14.01 8.64999 14.02 8.72999 14.02C8.96999 13.38 9.39999 12.73 10.03 12.16C9.46999 12.06 8.93999 12 8.49999 12C7.19999 12 5.10999 12.45 3.76999 13.43C3.26999 12.39 2.98999 11.23 2.98999 10C2.98999 5.59 6.57999 2 10.99 2C15.4 2 18.99 5.59 18.99 10C18.99 11.2 18.72 12.34 18.24 13.37C17.24 12.78 15.88 12.5 15 12.5C13.48 12.5 10.5 13.31 10.5 15.2V17.98C8.22999 17.85 6.20999 16.77 4.83999 15.12V15.12Z" fill="#9A9AB0"/>
</svg>
