<svg width="17" height="16" viewBox="0 0 17 16" fill="none" xmlns="http://www.w3.org/2000/svg">
<path fill-rule="evenodd" clip-rule="evenodd" d="M6.49999 7C5.94771 7 5.49999 6.55229 5.49999 6C5.49999 5.44772 5.94771 5 6.49999 5C7.05228 5 7.49999 5.44772 7.49999 6C7.49999 6.55229 7.05228 7 6.49999 7ZM8.49999 13.21V15.99C6.22999 15.86 4.20999 14.78 2.83999 13.13C3.51999 12.59 5.11999 12.02 6.49999 12.02C6.57999 12.02 6.64999 12.03 6.72999 12.03C6.96999 11.39 7.39999 10.74 8.02999 10.17C7.46999 10.06 6.93999 10.01 6.49999 10.01C5.19999 10.01 3.10999 10.46 1.76999 11.44C1.27999 10.4 0.98999 9.24 0.98999 8.01C0.98999 3.6 4.57999 0.0100021 8.98999 0.0100021C13.4 0.0100021 16.99 3.6 16.99 8.01C16.99 9.22 16.72 10.36 16.24 11.38C15.24 10.78 13.88 10.51 13 10.51C11.48 10.51 8.49999 11.33 8.49999 13.21V13.21ZM13 5C11.89 5 10.99 5.89 11 7C11 8.11 11.89 9 13 9C14.11 9 15 8.11 15 7C15 5.89 14.11 5 13 5ZM6.49999 9C8.14999 9 9.49999 7.65 9.49999 6C9.49999 4.35 8.14999 3 6.49999 3C4.84999 3 3.49999 4.35 3.49999 6C3.49999 7.65 4.84999 9 6.49999 9Z" fill="white"/>
</svg>
